IKResults
version=1
nRows=5
nColumns=63
inDegrees=yes

Units are S.I. units (second, meters, Newtons, ...)
If the header above contains a line with 'inDegrees', this indicates whether rotational values are in degrees (yes) or radians (no).

endheader
time	pelvis_tilt	pelvis_list	pelvis_rotation	pelvis_tx	pelvis_ty	pelvis_tz	hip_flexion_r	hip_adduction_r	hip_rotation_r	knee_angle_r	knee_angle_r_beta	ankle_angle_r	subtalar_angle_r	mtp_angle_r	hip_flexion_l	hip_adduction_l	hip_rotation_l	knee_angle_l	knee_angle_l_beta	ankle_angle_l	subtalar_angle_l	mtp_angle_l	L5_S1_Flex_Ext	L5_S1_Lat_Bending	L5_S1_axial_rotation	L4_L5_Flex_Ext	L4_L5_Lat_Bending	L4_L5_axial_rotation	L3_L4_Flex_Ext	L3_L4_Lat_Bending	L3_L4_axial_rotation	L2_L3_Flex_Ext	L2_L3_Lat_Bending	L2_L3_axial_rotation	L1_L2_Flex_Ext	L1_L2_Lat_Bending	L1_L2_axial_rotation	L1_T12_Flex_Ext	L1_T12_Lat_Bending	L1_T12_axial_rotation	Abs_r3	Abs_r2	Abs_r1	Abs_t1	Abs_t2	neck_flexion	neck_bending	neck_rotation	arm_flex_r	arm_add_r	arm_rot_r	elbow_flex_r	pro_sup_r	wrist_flex_r	wrist_dev_r	arm_flex_l	arm_add_l	arm_rot_l	elbow_flex_l	pro_sup_l	wrist_flex_l	wrist_dev_l
      4.03333333	    145.41181025	    -54.21658811	    234.01894704	     -0.53776771	      0.25162650	     -0.53641332	     50.28860913	    -13.73548798	    -39.82641162	     30.75792938	      0.53682714	      0.00000000	      0.00000000	      0.00000000	     48.04801491	      1.24805454	     37.37688926	     16.12125044	      0.28136890	      0.00000000	      0.00000000	      0.00000000	      2.83236107	      0.59927795	     -8.91199044	      5.25997774	      0.79703967	     -9.46898985	      4.65328600	      1.45708440	     -9.46898985	      3.23710546	      1.45708440	     -7.79799164	      2.63013049	      1.22204759	     -7.24099224	      1.61841111	      0.92828154	     -6.68399283	     20.23127187	      6.77915200	    -49.56581726	      0.00000000	      0.00000000	      4.37647469	      1.43170832	     44.73698167	     11.31259890	      3.16126342	     -9.55356887	     36.05178834	     89.99559364	      0.00000000	      0.00000000	     91.87980902	     36.34761869	    -10.99569979	     74.31016939	     89.99559364	      0.00000000	      0.00000000
      4.06666667	    143.57793550	    -54.08127517	    232.66356471	     -0.53674720	      0.25341053	     -0.53723043	     49.63287211	    -12.83070977	    -39.82693810	     30.38713586	      0.53035557	      0.00000000	      0.00000000	      0.00000000	     47.83016953	      0.52895753	     37.73006601	     16.33249233	      0.28505577	      0.00000000	      0.00000000	      0.00000000	      2.64679410	      0.67458416	     -8.97070125	      4.91536133	      0.89719694	     -9.53137008	      4.34841803	      1.64018394	     -9.53137008	      3.02502098	      1.64018394	     -7.84936359	      2.45781300	      1.37561203	     -7.28869477	      1.51237815	      1.04493087	     -6.72802594	     18.90578561	      7.63103098	    -49.89234914	      0.00000000	      0.00000000	      5.10193632	      1.27619234	     44.74013083	     11.79655610	      3.53810971	    -10.01203081	     35.89468734	     89.99559364	      0.00000000	      0.00000000	     92.19198321	     36.80919227	    -10.89754071	     74.23310676	     89.99559364	      0.00000000	      0.00000000
      4.10000000	    143.34977319	    -53.89175345	    232.56485663	     -0.53480056	      0.25458391	     -0.53750665	     49.78322687	    -12.56167130	    -39.82238822	     30.44063737	      0.53128935	      0.00000000	      0.00000000	      0.00000000	     48.04583309	      0.23779061	     37.78818316	     16.27717794	      0.28409035	      0.00000000	      0.00000000	      0.00000000	      2.63559728	      0.68025320	     -9.02730348	      4.89456771	      0.90473676	     -9.59150995	      4.33002277	      1.65396763	     -9.59150995	      3.01222413	      1.65396763	     -7.89889055	      2.44741563	      1.38717232	     -7.33468408	      1.50598029	      1.05371221	     -6.77047761	     18.82580781	      7.69516024	    -50.20715379	      0.00000000	      0.00000000	      5.16395479	      1.48944329	     44.73803038	     11.75677476	      3.88396887	     -9.96004007	     35.89898142	     89.99559364	      0.00000000	      0.00000000	     92.21162812	     36.83556466	    -10.89190047	     74.22852322	     89.99559364	      0.00000000	      0.00000000
      4.13333333	    141.88050587	    -53.45226736	    231.63373007	     -0.53399935	      0.25608121	     -0.53780732	     49.44151369	    -11.76613820	    -39.82223161	     30.09138562	      0.52519376	      0.00000000	      0.00000000	      0.00000000	     48.16829455	     -0.43357174	     37.92170465	     16.33909806	      0.28517106	      0.00000000	      0.00000000	      0.00000000	      2.51626056	      0.76772689	     -9.11885118	      4.67294748	      1.02107677	     -9.68877937	      4.13396447	      1.86665116	     -9.68877937	      2.87583419	      1.86665116	     -7.97899478	      2.33659955	      1.56554868	     -7.40906658	      1.43779128	      1.18920896	     -6.83913838	     17.97339752	      8.68468014	    -50.71631458	      0.00000000	      0.00000000	      5.64202102	      1.52182220	     44.74316491	     12.20914891	      3.96867413	     -9.75853443	     35.67009566	     89.99559364	      0.00000000	      0.00000000	     92.44549063	     37.12055194	    -10.83133051	     74.17563303	     89.99559364	      0.00000000	      0.00000000
      4.16666667	    141.49544959	    -53.20374025	    231.47053790	     -0.53270321	      0.25705286	     -0.53787683	     49.50736054	    -11.49769227	    -39.81855070	     30.08920125	      0.52515563	      0.00000000	      0.00000000	      0.00000000	     48.36140846	     -0.72064774	     37.93806175	     16.25140543	      0.28364053	      0.00000000	      0.00000000	      0.00000000	      2.49430372	      0.78844157	     -9.17640240	      4.63217144	      1.04862728	     -9.74992755	      4.09789158	      1.91701683	     -9.74992755	      2.85073972	      1.91701683	     -8.02935210	      2.31621043	      1.60779004	     -7.45582695	      1.42524514	      1.22129599	     -6.88230180	     17.81656203	      8.91900870	    -51.03639725	      0.00000000	      0.00000000	      5.65684680	      1.86027250	     44.74438514	     12.27138154	      4.17984406	     -9.67559282	     35.60067118	     89.99559364	      0.00000000	      0.00000000	     92.49064348	     37.17089825	    -10.82065689	     74.16594874	     89.99559364	      0.00000000	      0.00000000
